<svg width="20" height="20" viewBox="0 0 20 20" fill="none" xmlns="http://www.w3.org/2000/svg">
<path d="M7.20006 3.52954C7.36933 3.08524 7.60208 2.67621 7.94768 2.34475C9.33007 0.99775 11.6152 1.33626 12.5533 3.02882C13.2586 4.31235 14.0062 5.56766 14.7327 6.83708C15.9458 8.94573 17.173 11.0544 18.372 13.1701C19.3806 14.9402 18.2874 17.1758 16.2843 17.4791C15.0571 17.6624 13.9075 17.0982 13.2727 15.9981C12.2077 14.1433 11.1356 12.2885 10.0706 10.4408C10.0495 10.3985 10.0213 10.3632 9.99305 10.328C9.88021 10.2363 9.83083 10.1023 9.7603 9.98242C9.28775 9.15025 8.80109 8.32512 8.32854 7.5C8.02526 6.96402 7.70788 6.4351 7.4046 5.89912C7.12953 5.41956 7.00258 4.89769 7.01668 4.34761C7.03784 4.06552 7.07311 3.78342 7.20006 3.52954Z" fill="#3C8BD9"/>
<path d="M7.20371 3.52954C7.14024 3.78343 7.08381 4.03731 7.06971 4.3053C7.04855 4.89769 7.19666 5.44778 7.49289 5.9626C8.26872 7.29549 9.04455 8.63543 9.81333 9.97537C9.88386 10.0953 9.94028 10.2152 10.0108 10.328C9.58763 11.0614 9.16445 11.7878 8.73422 12.5213C8.14176 13.5439 7.54931 14.5735 6.9498 15.5961C6.92159 15.5961 6.91454 15.582 6.90749 15.5608C6.90043 15.5044 6.92159 15.455 6.9357 15.3986C7.22487 14.3408 6.98507 13.4028 6.25861 12.5988C5.81427 12.1122 5.25003 11.8372 4.60115 11.7455C3.75479 11.6256 3.00717 11.8442 2.33713 12.3732C2.21723 12.4648 2.13965 12.5988 1.99859 12.6694C1.97038 12.6694 1.95627 12.6553 1.94922 12.6341C2.28776 12.0488 2.61926 11.4634 2.9578 10.8781C4.3543 8.45207 5.75079 6.02607 7.15434 3.60712C7.16845 3.57891 7.18961 3.55775 7.20371 3.52954Z" fill="#FABC04"/>
<path d="M1.97945 12.6553C2.11346 12.5354 2.24041 12.4085 2.38147 12.2956C4.09535 10.9416 6.6697 11.9218 7.04351 14.0657C7.1352 14.5806 7.08583 15.0742 6.93067 15.5679C6.92361 15.6102 6.91656 15.6455 6.90245 15.6878C6.83898 15.8006 6.78255 15.9205 6.71202 16.0333C6.0843 17.07 5.16036 17.5849 3.94724 17.5073C2.5578 17.4086 1.46458 16.3648 1.27415 14.9826C1.18246 14.3126 1.31647 13.6849 1.66207 13.1066C1.7326 12.9797 1.81723 12.8669 1.89481 12.7399C1.93008 12.7117 1.91597 12.6553 1.97945 12.6553Z" fill="#34A852"/>
<path d="M1.98102 12.6554C1.95281 12.6836 1.95281 12.733 1.90344 12.74C1.89639 12.6907 1.9246 12.6625 1.95281 12.6272L1.98102 12.6554Z" fill="#FABC04"/>
<path d="M6.90231 15.6878C6.8741 15.6384 6.90231 15.6031 6.93052 15.5679C6.93758 15.5749 6.95168 15.589 6.95874 15.5961L6.90231 15.6878Z" fill="#E1C025"/>
</svg>
