<svg width="15" height="18" viewBox="0 0 15 18" fill="none" xmlns="http://www.w3.org/2000/svg">
<path d="M4.24894 17.0453L4.55472 15.103L3.87359 15.0872H0.621094L2.88141 0.755323C2.88843 0.712058 2.91123 0.671716 2.94455 0.643067C2.97788 0.614419 3.02056 0.598633 3.06499 0.598633H8.54916C10.3698 0.598633 11.6262 0.977496 12.2822 1.72528C12.5898 2.07608 12.7856 2.44267 12.8804 2.84609C12.9797 3.26938 12.9815 3.77512 12.8844 4.39194L12.8774 4.43696V4.83219L13.185 5.00642C13.444 5.14382 13.6498 5.3011 13.8076 5.48117C14.0707 5.78111 14.2409 6.16231 14.3128 6.61425C14.387 7.07906 14.3625 7.63216 14.2409 8.25833C14.1006 8.97864 13.8737 9.60599 13.5673 10.1193C13.2855 10.5923 12.9265 10.9846 12.5003 11.2887C12.0934 11.5775 11.6099 11.7967 11.0632 11.937C10.5335 12.075 9.92955 12.1446 9.26712 12.1446H8.84032C8.53512 12.1446 8.2387 12.2545 8.006 12.4516C7.77272 12.6527 7.61837 12.9275 7.57101 13.228L7.53885 13.4028L6.99862 16.826L6.97407 16.9517C6.96764 16.9915 6.95653 17.0114 6.94016 17.0248C6.92554 17.0371 6.90449 17.0453 6.88403 17.0453H4.24894Z" fill="#253B80"/>
<path d="M13.4744 4.48242C13.4581 4.58708 13.4394 4.69407 13.4183 4.80399C12.6951 8.5172 10.2208 9.79995 7.06067 9.79995H5.45167C5.06521 9.79995 4.73955 10.0806 4.67933 10.4618L3.85554 15.6864L3.62225 17.1673C3.58308 17.4176 3.77602 17.6432 4.0286 17.6432H6.88235C7.22028 17.6432 7.50735 17.3977 7.56056 17.0644L7.58862 16.9194L8.12593 13.5097L8.16043 13.3226C8.21305 12.9881 8.5007 12.7426 8.83864 12.7426H9.26544C12.0303 12.7426 14.1948 11.62 14.8274 8.37162C15.0916 7.01461 14.9548 5.88153 14.2556 5.08463C14.0439 4.84433 13.7814 4.64496 13.4744 4.48242Z" fill="#179BD7"/>
<path d="M12.7183 4.18098C12.6077 4.14882 12.4937 4.11959 12.3768 4.09328C12.2593 4.06755 12.1388 4.04475 12.0149 4.02487C11.5811 3.95471 11.1057 3.92139 10.5965 3.92139H6.29804C6.19222 3.92139 6.09165 3.94536 6.00162 3.98862C5.80341 4.08392 5.65608 4.2716 5.62041 4.50137L4.706 10.2931L4.67969 10.462C4.73991 10.0808 5.06557 9.8002 5.45203 9.8002H7.06103C10.2211 9.8002 12.6954 8.51686 13.4187 4.80423C13.4403 4.69431 13.4584 4.58732 13.4748 4.48267C13.2918 4.38561 13.0936 4.30259 12.8802 4.23184C12.8276 4.2143 12.7732 4.19735 12.7183 4.18098Z" fill="#222D65"/>
<path d="M5.62097 4.50134C5.65663 4.27156 5.80397 4.08389 6.00217 3.98917C6.09279 3.94591 6.19277 3.92193 6.29859 3.92193H10.5971C11.1063 3.92193 11.5816 3.95526 12.0155 4.02542C12.1394 4.0453 12.2598 4.0681 12.3774 4.09383C12.4943 4.12014 12.6083 4.14937 12.7188 4.18153C12.7738 4.1979 12.8281 4.21485 12.8813 4.23181C13.0947 4.30255 13.2929 4.38616 13.4759 4.48263C13.6911 3.11042 13.4742 2.17612 12.7323 1.33011C11.9143 0.398742 10.438 0 8.54897 0H3.06481C2.67893 0 2.34976 0.280639 2.29013 0.662426L0.00584012 15.1417C-0.0391791 15.4281 0.181824 15.6866 0.470649 15.6866H3.85645L4.70655 10.293L5.62097 4.50134Z" fill="#253B80"/>
</svg>
